<svg width="1200" height="340" viewBox="0 0 1200 340" fill="none" xmlns="http://www.w3.org/2000/svg">
  <!-- Background -->
  <rect width="1200" height="340" fill="#0d1b2e"/>

  <!-- Grid lines horizontal -->
  <line x1="0" y1="40"  x2="1200" y2="40"  stroke="white" stroke-opacity="0.04"/>
  <line x1="0" y1="80"  x2="1200" y2="80"  stroke="white" stroke-opacity="0.04"/>
  <line x1="0" y1="120" x2="1200" y2="120" stroke="white" stroke-opacity="0.04"/>
  <line x1="0" y1="160" x2="1200" y2="160" stroke="white" stroke-opacity="0.04"/>
  <line x1="0" y1="200" x2="1200" y2="200" stroke="white" stroke-opacity="0.04"/>
  <line x1="0" y1="240" x2="1200" y2="240" stroke="white" stroke-opacity="0.04"/>
  <line x1="0" y1="280" x2="1200" y2="280" stroke="white" stroke-opacity="0.04"/>
  <line x1="0" y1="320" x2="1200" y2="320" stroke="white" stroke-opacity="0.04"/>

  <!-- Grid lines vertical -->
  <line x1="80"  y1="0" x2="80"  y2="340" stroke="white" stroke-opacity="0.04"/>
  <line x1="160" y1="0" x2="160" y2="340" stroke="white" stroke-opacity="0.04"/>
  <line x1="240" y1="0" x2="240" y2="340" stroke="white" stroke-opacity="0.04"/>
  <line x1="320" y1="0" x2="320" y2="340" stroke="white" stroke-opacity="0.04"/>
  <line x1="400" y1="0" x2="400" y2="340" stroke="white" stroke-opacity="0.04"/>
  <line x1="480" y1="0" x2="480" y2="340" stroke="white" stroke-opacity="0.04"/>
  <line x1="560" y1="0" x2="560" y2="340" stroke="white" stroke-opacity="0.04"/>
  <line x1="640" y1="0" x2="640" y2="340" stroke="white" stroke-opacity="0.04"/>
  <line x1="720" y1="0" x2="720" y2="340" stroke="white" stroke-opacity="0.04"/>
  <line x1="800" y1="0" x2="800" y2="340" stroke="white" stroke-opacity="0.04"/>
  <line x1="880" y1="0" x2="880" y2="340" stroke="white" stroke-opacity="0.04"/>
  <line x1="960" y1="0" x2="960" y2="340" stroke="white" stroke-opacity="0.04"/>
  <line x1="1040" y1="0" x2="1040" y2="340" stroke="white" stroke-opacity="0.04"/>
  <line x1="1120" y1="0" x2="1120" y2="340" stroke="white" stroke-opacity="0.04"/>

  <!-- Glow behind logo -->
  <ellipse cx="600" cy="155" rx="260" ry="140" fill="#10b981" fill-opacity="0.06"/>

  <!-- Logo mark (shield + database) — centered -->
  <g transform="translate(524, 68)">
    <!-- Shield fill -->
    <path d="M76 8L18 32V76C18 111 42 143 76 152C110 143 134 111 134 76V32L76 8Z" fill="#10b981" fill-opacity="0.18"/>
    <!-- Shield stroke -->
    <path d="M76 8L18 32V76C18 111 42 143 76 152C110 143 134 111 134 76V32L76 8Z" stroke="#10b981" stroke-width="5" stroke-linejoin="round"/>
    <!-- DB cylinder top ellipse -->
    <ellipse cx="76" cy="60" rx="24" ry="8.5" fill="#10b981"/>
    <!-- DB cylinder body -->
    <path d="M52 60V92C52 98 62 103 76 103C90 103 100 98 100 92V60" fill="#10b981" fill-opacity="0.18" stroke="#10b981" stroke-width="4.5"/>
    <!-- DB mid line -->
    <path d="M52 76C52 82 62 87 76 87C90 87 100 82 100 76" stroke="#10b981" stroke-width="3.5" stroke-linecap="round" opacity="0.55"/>
  </g>

  <!-- PolicyCraft wordmark -->
  <text x="600" y="264" font-family="system-ui, -apple-system, sans-serif" font-size="52" font-weight="700" fill="white" text-anchor="middle" letter-spacing="-1">PolicyCraft</text>

  <!-- Tagline -->
  <text x="600" y="300" font-family="system-ui, -apple-system, sans-serif" font-size="18" fill="#10b981" text-anchor="middle" opacity="0.85">Row-level security, simplified</text>

  <!-- Left badge: OpenAI -->
  <rect x="318" y="316" width="120" height="18" rx="9" fill="#10b981" fill-opacity="0.12" stroke="#10b981" stroke-opacity="0.3" stroke-width="1"/>
  <text x="378" y="329" font-family="system-ui, sans-serif" font-size="10" fill="#10b981" text-anchor="middle" opacity="0.9">Powered by GPT-4o</text>

  <!-- Right badge: Supabase -->
  <rect x="762" y="316" width="120" height="18" rx="9" fill="#10b981" fill-opacity="0.12" stroke="#10b981" stroke-opacity="0.3" stroke-width="1"/>
  <text x="822" y="329" font-family="system-ui, sans-serif" font-size="10" fill="#10b981" text-anchor="middle" opacity="0.9">Built for Supabase</text>
</svg>
