<svg width="32" height="32" viewBox="0 0 32 32" fill="none" xmlns="http://www.w3.org/2000/svg">
  <path d="M16 2.5L3.5 7.5V16C3.5 22.9 8.8 29.2 16 30.8C23.2 29.2 28.5 22.9 28.5 16V7.5L16 2.5Z" fill="#10b981" fill-opacity="0.2"/>
  <path d="M16 2.5L3.5 7.5V16C3.5 22.9 8.8 29.2 16 30.8C23.2 29.2 28.5 22.9 28.5 16V7.5L16 2.5Z" stroke="#10b981" stroke-width="1.8" stroke-linejoin="round"/>
  <ellipse cx="16" cy="12.5" rx="5" ry="1.8" fill="#10b981"/>
  <path d="M11 12.5V19C11 20 13.2 20.8 16 20.8C18.8 20.8 21 20 21 19V12.5" fill="#10b981" fill-opacity="0.15" stroke="#10b981" stroke-width="1.5"/>
  <path d="M11 15.8C11 16.8 13.2 17.5 16 17.5C18.8 17.5 21 16.8 21 15.8" stroke="#10b981" stroke-width="1.1" stroke-linecap="round" opacity="0.6"/>
</svg>
